<svg width="37" height="37" viewBox="0 0 37 37" fill="none" xmlns="http://www.w3.org/2000/svg">
<path d="M23.5054 16.7425C23.5562 16.732 23.6087 16.732 23.6595 16.7425C23.6086 16.7333 23.5563 16.7333 23.5054 16.7425Z" fill="black"/>
<path d="M15.0879 15.2214C13.7133 15.2214 12.3696 14.8136 11.2269 14.0497C10.0841 13.2858 9.19358 12.2001 8.66802 10.93C8.14247 9.65987 8.00548 8.26237 8.27439 6.91436C8.54331 5.56634 9.20604 4.32838 10.1787 3.35713C11.1514 2.38588 12.3904 1.72498 13.7388 1.45806C15.0872 1.19114 16.4845 1.33019 17.7538 1.85763C19.0232 2.38507 20.1076 3.27718 20.8698 4.42109C21.632 5.565 22.0377 6.90929 22.0357 8.28386C22.0303 10.1239 21.2962 11.8869 19.9941 13.187C18.692 14.4872 16.928 15.2187 15.0879 15.2214ZM15.0879 3.39164C14.1203 3.39164 13.1745 3.67857 12.3699 4.21613C11.5654 4.75369 10.9384 5.51775 10.5681 6.41169C10.1978 7.30563 10.1009 8.28929 10.2897 9.23829C10.4785 10.1873 10.9444 11.059 11.6286 11.7432C12.3128 12.4274 13.1845 12.8933 14.1335 13.0821C15.0825 13.2709 16.0661 13.174 16.9601 12.8037C17.854 12.4334 18.6181 11.8064 19.1556 11.0018C19.6932 10.1973 19.9801 9.25145 19.9801 8.28386C19.9801 6.98637 19.4647 5.74201 18.5472 4.82454C17.6298 3.90707 16.3854 3.39164 15.0879 3.39164Z" fill="white"/>
<path d="M16.8762 32.5601C16.6516 32.3354 16.4783 32.0647 16.3683 31.7666C16.2583 31.4685 16.2142 31.1501 16.239 30.8334H4.11122V24.8928C5.56851 23.3378 7.33609 22.1062 9.29954 21.2776C11.263 20.449 13.3785 20.042 15.5093 20.0828H16.2493C16.2021 19.7382 16.2351 19.3874 16.3456 19.0576C16.4561 18.7279 16.6412 18.428 16.8865 18.1814L17.0098 18.0684C16.5268 18.0684 15.9821 18.0067 15.5093 18.0067C13.0019 17.9472 10.5127 18.4456 8.22148 19.4659C5.93031 20.4861 3.89449 22.0028 2.26122 23.9062C2.12779 24.0841 2.05566 24.3005 2.05566 24.5228V30.8334C2.05566 31.3786 2.27223 31.9014 2.65772 32.2869C3.04321 32.6724 3.56605 32.8889 4.11122 32.8889H17.164L16.8762 32.5601Z" fill="white"/>
<path d="M34.6151 23.9678L32.5596 23.3409C32.4126 22.8381 32.2128 22.3523 31.9634 21.8917L32.9912 19.98C33.0247 19.9036 33.0327 19.8184 33.0142 19.737C32.9957 19.6556 32.9516 19.5823 32.8884 19.5278L31.3982 18.0375C31.3418 17.9765 31.2666 17.9362 31.1845 17.9232C31.1025 17.9101 31.0185 17.9251 30.9459 17.9656L29.0548 18.9934C28.5892 18.7316 28.0964 18.5214 27.5851 18.3664L26.9582 16.3109C26.9316 16.2352 26.8811 16.1702 26.8144 16.1257C26.7476 16.0813 26.6682 16.0597 26.5882 16.0642H24.4812C24.4003 16.0633 24.3213 16.0889 24.2563 16.1372C24.1913 16.1854 24.144 16.2537 24.1215 16.3314L23.4946 18.387C22.9798 18.5367 22.4834 18.7436 22.0146 19.0036L20.144 17.9759C20.0731 17.9361 19.9907 17.9216 19.9105 17.9347C19.8302 17.9478 19.7567 17.9876 19.7021 18.0478L18.1809 19.5278C18.1246 19.5872 18.0882 19.6628 18.0772 19.744C18.0661 19.8251 18.0808 19.9077 18.1193 19.98L19.1471 21.8506C18.8752 22.3139 18.6579 22.807 18.4996 23.3203L16.444 23.937C16.3662 23.9594 16.298 24.0068 16.2497 24.0718C16.2015 24.1368 16.1758 24.2158 16.1768 24.2967V26.4036C16.1829 26.4779 16.2118 26.5484 16.2597 26.6055C16.3076 26.6625 16.372 26.7033 16.444 26.7222L18.4996 27.3492C18.6515 27.8534 18.8583 28.3393 19.1162 28.7984L18.0884 30.7614C18.0492 30.8318 18.034 30.913 18.0452 30.9927C18.0563 31.0725 18.0931 31.1464 18.1501 31.2034L19.6404 32.6936C19.6986 32.7517 19.7737 32.7899 19.8549 32.8028C19.9361 32.8158 20.0193 32.8027 20.0926 32.7656L22.0146 31.7378C22.4719 31.9838 22.9543 32.1802 23.4534 32.3236L24.0701 34.3792C24.0954 34.4553 24.1435 34.5217 24.2078 34.5695C24.2722 34.6173 24.3497 34.6442 24.4298 34.6464H26.5368C26.6173 34.6457 26.6955 34.6194 26.7602 34.5714C26.8248 34.5234 26.8726 34.4561 26.8965 34.3792L27.5234 32.2722C28.016 32.1287 28.4915 31.9323 28.9418 31.6864L30.8843 32.7142C30.9557 32.7521 31.0376 32.7657 31.1174 32.7527C31.1972 32.7397 31.2705 32.7009 31.3262 32.6422L32.8884 31.2445C32.9304 31.1842 32.953 31.1124 32.953 31.0389C32.953 30.9654 32.9304 30.8937 32.8884 30.8334L31.8607 28.9011C32.1102 28.4478 32.31 27.9688 32.4568 27.4725L34.5123 26.8456C34.5901 26.8231 34.6583 26.7757 34.7066 26.7108C34.7549 26.6458 34.7805 26.5668 34.7796 26.4859V24.3275C34.789 24.2582 34.7785 24.1875 34.7494 24.1238C34.7203 24.0602 34.6738 24.0061 34.6151 23.9678ZM25.5398 28.7778C24.86 28.7798 24.1949 28.58 23.6288 28.2036C23.0627 27.8271 22.6212 27.2911 22.3601 26.6634C22.099 26.0358 22.0301 25.3447 22.1623 24.6779C22.2944 24.011 22.6215 23.3984 23.1022 22.9177C23.5829 22.437 24.1955 22.1098 24.8624 21.9777C25.5292 21.8456 26.2203 21.9144 26.848 22.1755C27.4757 22.4366 28.0117 22.8782 28.3881 23.4443C28.7645 24.0104 28.9644 24.6755 28.9623 25.3553C28.9596 26.2622 28.5982 27.1311 27.9569 27.7724C27.3157 28.4136 26.4467 28.7751 25.5398 28.7778Z" fill="white"/>
</svg>
