<svg width="30" height="30" viewBox="0 0 30 30" fill="none" xmlns="http://www.w3.org/2000/svg">
<path d="M12.2334 12.3416C11.1189 12.3416 10.0294 12.011 9.10285 11.3917C8.17627 10.7723 7.45424 9.89198 7.02811 8.86214C6.60199 7.8323 6.49091 6.6992 6.70895 5.60621C6.92699 4.51322 7.46435 3.50947 8.25302 2.72197C9.04168 1.93447 10.0462 1.3986 11.1395 1.18218C12.2328 0.965761 13.3658 1.07851 14.395 1.50616C15.4242 1.93381 16.3034 2.65715 16.9214 3.58464C17.5394 4.51213 17.8684 5.6021 17.8668 6.71662C17.8624 8.20855 17.2672 9.63799 16.2114 10.6922C15.1557 11.7464 13.7254 12.3394 12.2334 12.3416ZM12.2334 2.74995C11.4489 2.74995 10.682 2.98259 10.0297 3.41846C9.37735 3.85432 8.86893 4.47383 8.56871 5.19864C8.26848 5.92346 8.18992 6.72102 8.34298 7.49048C8.49603 8.25994 8.87382 8.96673 9.42857 9.52148C9.98332 10.0762 10.6901 10.454 11.4596 10.6071C12.229 10.7601 13.0266 10.6816 13.7514 10.3813C14.4762 10.0811 15.0957 9.5727 15.5316 8.92038C15.9675 8.26807 16.2001 7.50115 16.2001 6.71662C16.2001 5.6646 15.7822 4.65566 15.0383 3.91176C14.2944 3.16787 13.2855 2.74995 12.2334 2.74995Z" fill="black"/>
<path d="M13.6834 26.4001C13.5013 26.2179 13.3608 25.9984 13.2716 25.7567C13.1824 25.515 13.1466 25.2569 13.1667 25.0001H3.33341V20.1834C4.515 18.9226 5.94817 17.924 7.54016 17.2521C9.13214 16.5803 10.8475 16.2503 12.5751 16.2834H13.1751C13.1368 16.004 13.1635 15.7195 13.2532 15.4521C13.3428 15.1848 13.4929 14.9416 13.6917 14.7417L13.7917 14.6501C13.4001 14.6501 12.9584 14.6001 12.5751 14.6001C10.5421 14.5518 8.52376 14.9559 6.66606 15.7831C4.80835 16.6104 3.15769 17.8401 1.83341 19.3834C1.72523 19.5276 1.66675 19.7031 1.66675 19.8834V25.0001C1.66675 25.4421 1.84234 25.866 2.1549 26.1786C2.46746 26.4911 2.89139 26.6667 3.33341 26.6667H13.9167L13.6834 26.4001Z" fill="black"/>
<path d="M22.3916 13.575C22.4328 13.5665 22.4754 13.5665 22.5166 13.575C22.4753 13.5675 22.4329 13.5675 22.3916 13.575Z" fill="black"/>
<path d="M28.0667 19.4334L26.4001 18.925C26.2809 18.5174 26.1189 18.1235 25.9167 17.75L26.7501 16.2C26.7772 16.138 26.7837 16.069 26.7687 16.003C26.7537 15.937 26.718 15.8775 26.6667 15.8334L25.4584 14.625C25.4127 14.5755 25.3517 14.5429 25.2852 14.5323C25.2186 14.5217 25.1505 14.5338 25.0917 14.5667L23.5584 15.4C23.1808 15.1878 22.7812 15.0173 22.3667 14.8917L21.8584 13.225C21.8368 13.1637 21.7959 13.111 21.7418 13.0749C21.6877 13.0388 21.6233 13.0213 21.5584 13.025H19.8501C19.7844 13.0243 19.7204 13.045 19.6677 13.0842C19.615 13.1233 19.5766 13.1786 19.5584 13.2417L19.0501 14.9084C18.6327 15.0298 18.2302 15.1975 17.8501 15.4084L16.3334 14.575C16.2759 14.5428 16.2091 14.531 16.144 14.5416C16.079 14.5522 16.0194 14.5846 15.9751 14.6334L14.7417 15.8334C14.696 15.8815 14.6666 15.9428 14.6576 16.0086C14.6486 16.0744 14.6606 16.1414 14.6917 16.2L15.5251 17.7167C15.3046 18.0923 15.1285 18.4922 15.0001 18.9084L13.3334 19.4084C13.2703 19.4266 13.215 19.465 13.1759 19.5177C13.1367 19.5703 13.116 19.6344 13.1167 19.7V21.4084C13.1216 21.4685 13.1451 21.5257 13.1839 21.572C13.2228 21.6183 13.275 21.6514 13.3334 21.6667L15.0001 22.175C15.1232 22.5838 15.2909 22.9778 15.5001 23.35L14.6667 24.9417C14.6349 24.9987 14.6226 25.0646 14.6316 25.1292C14.6406 25.1939 14.6705 25.2539 14.7167 25.3L15.9251 26.5083C15.9723 26.5554 16.0331 26.5864 16.0989 26.5969C16.1648 26.6074 16.2322 26.5968 16.2917 26.5667L17.8501 25.7333C18.2209 25.9328 18.612 26.092 19.0167 26.2084L19.5167 27.875C19.5372 27.9367 19.5762 27.9906 19.6284 28.0293C19.6806 28.0681 19.7434 28.0899 19.8084 28.0917H21.5167C21.582 28.0911 21.6454 28.0698 21.6979 28.0309C21.7503 27.9919 21.789 27.9374 21.8084 27.875L22.3167 26.1667C22.7161 26.0503 23.1016 25.891 23.4667 25.6917L25.0417 26.525C25.0996 26.5558 25.166 26.5667 25.2307 26.5562C25.2954 26.5457 25.3549 26.5142 25.4001 26.4667L26.6667 25.3333C26.7008 25.2844 26.719 25.2263 26.719 25.1667C26.719 25.1071 26.7008 25.0489 26.6667 25L25.8334 23.4334C26.0357 23.0657 26.1977 22.6774 26.3167 22.275L27.9834 21.7667C28.0464 21.7485 28.1018 21.7101 28.1409 21.6574C28.18 21.6047 28.2008 21.5406 28.2001 21.475V19.725C28.2077 19.6688 28.1992 19.6115 28.1756 19.5599C28.152 19.5082 28.1143 19.4644 28.0667 19.4334ZM20.7084 23.3334C20.1572 23.335 19.6179 23.1729 19.1589 22.8677C18.6999 22.5625 18.3419 22.1279 18.1302 21.619C17.9185 21.1101 17.8627 20.5498 17.9698 20.0091C18.0769 19.4684 18.3422 18.9717 18.732 18.5819C19.1217 18.1922 19.6184 17.9269 20.1591 17.8198C20.6998 17.7126 21.2601 17.7685 21.769 17.9802C22.278 18.1919 22.7126 18.5499 23.0178 19.0089C23.323 19.4679 23.485 20.0072 23.4834 20.5584C23.4812 21.2936 23.1881 21.9982 22.6682 22.5181C22.1482 23.0381 21.4437 23.3312 20.7084 23.3334Z" fill="black"/>
</svg>
