<svg width="235" height="235" viewBox="0 0 235 235" fill="none" xmlns="http://www.w3.org/2000/svg">
<g clip-path="url(#clip0_354_2)">
<path d="M108.012 82.9256C107.329 82.2428 106.518 81.7012 105.626 81.3317C104.734 80.9622 103.778 80.772 102.813 80.772C101.847 80.772 100.891 80.9622 99.9986 81.3317C99.1065 81.7012 98.2959 82.2428 97.6131 82.9256C96.9303 83.6084 96.3887 84.419 96.0192 85.3111C95.6497 86.2032 95.4595 87.1594 95.4595 88.125C95.4595 89.0906 95.6497 90.0468 96.0192 90.9389C96.3887 91.831 96.9303 92.6416 97.6131 93.3244L114.46 110.156L97.6131 126.988C96.9303 127.671 96.3887 128.482 96.0192 129.374C95.6497 130.266 95.4595 131.222 95.4595 132.188C95.4595 133.153 95.6497 134.109 96.0192 135.001C96.3887 135.893 96.9303 136.704 97.6131 137.387C98.2959 138.07 99.1065 138.611 99.9986 138.981C100.891 139.35 101.847 139.541 102.813 139.541C103.778 139.541 104.734 139.35 105.626 138.981C106.518 138.611 107.329 138.07 108.012 137.387L124.844 120.54L141.676 137.387C143.055 138.766 144.925 139.541 146.875 139.541C148.825 139.541 150.695 138.766 152.074 137.387C153.453 136.008 154.228 134.138 154.228 132.188C154.228 130.237 153.453 128.367 152.074 126.988L135.228 110.156L152.074 93.3244C153.453 91.9454 154.228 90.0751 154.228 88.125C154.228 86.1749 153.453 84.3046 152.074 82.9256C150.695 81.5467 148.825 80.772 146.875 80.772C144.925 80.772 143.055 81.5467 141.676 82.9256L124.844 99.7722L108.012 82.9256Z" fill="#E13838"/>
<path d="M7.34375 14.6875C5.39607 14.6875 3.52815 15.4612 2.15093 16.8384C0.773714 18.2157 0 20.0836 0 22.0312C0 23.9789 0.773714 25.8468 2.15093 27.2241C3.52815 28.6013 5.39607 29.375 7.34375 29.375H23.6469L29.5366 52.9778L51.5384 170.258C51.8535 171.94 52.7466 173.46 54.0634 174.554C55.3802 175.649 57.0379 176.248 58.75 176.25H73.4375C65.6468 176.25 58.1751 179.345 52.6662 184.854C47.1574 190.363 44.0625 197.834 44.0625 205.625C44.0625 213.416 47.1574 220.887 52.6662 226.396C58.1751 231.905 65.6468 235 73.4375 235C81.2282 235 88.6999 231.905 94.2088 226.396C99.7176 220.887 102.812 213.416 102.812 205.625C102.812 197.834 99.7176 190.363 94.2088 184.854C88.6999 179.345 81.2282 176.25 73.4375 176.25H176.25C168.459 176.25 160.988 179.345 155.479 184.854C149.97 190.363 146.875 197.834 146.875 205.625C146.875 213.416 149.97 220.887 155.479 226.396C160.988 231.905 168.459 235 176.25 235C184.041 235 191.512 231.905 197.021 226.396C202.53 220.887 205.625 213.416 205.625 205.625C205.625 197.834 202.53 190.363 197.021 184.854C191.512 179.345 184.041 176.25 176.25 176.25H190.938C192.65 176.248 194.307 175.649 195.624 174.554C196.941 173.46 197.834 171.94 198.149 170.258L220.18 52.7575C220.379 51.6976 220.341 50.607 220.071 49.5632C219.8 48.5194 219.303 47.548 218.615 46.7181C217.926 45.8881 217.063 45.2199 216.088 44.7609C215.112 44.3019 214.047 44.0635 212.969 44.0625H42.4469L36.4984 20.2541C36.102 18.6646 35.1856 17.2534 33.8948 16.2447C32.604 15.2361 31.0131 14.688 29.375 14.6875H7.34375ZM64.8453 161.562L45.5606 58.75H204.127L184.842 161.562H64.8453ZM88.125 205.625C88.125 209.52 86.5776 213.256 83.8231 216.011C81.0687 218.765 77.3329 220.312 73.4375 220.312C69.5421 220.312 65.8063 218.765 63.0519 216.011C60.2974 213.256 58.75 209.52 58.75 205.625C58.75 201.73 60.2974 197.994 63.0519 195.239C65.8063 192.485 69.5421 190.938 73.4375 190.938C77.3329 190.938 81.0687 192.485 83.8231 195.239C86.5776 197.994 88.125 201.73 88.125 205.625ZM190.938 205.625C190.938 209.52 189.39 213.256 186.636 216.011C183.881 218.765 180.145 220.312 176.25 220.312C172.355 220.312 168.619 218.765 165.864 216.011C163.11 213.256 161.562 209.52 161.562 205.625C161.562 201.73 163.11 197.994 165.864 195.239C168.619 192.485 172.355 190.938 176.25 190.938C180.145 190.938 183.881 192.485 186.636 195.239C189.39 197.994 190.938 201.73 190.938 205.625Z" fill="#E13838"/>
</g>
<defs>
<clipPath id="clip0_354_2">
<rect width="235" height="235" fill="white"/>
</clipPath>
</defs>
</svg>
