<svg width="18" height="23" viewBox="0 0 18 23" fill="none" xmlns="http://www.w3.org/2000/svg">
<path d="M5.368 22.5C4.87593 22.5 4.45484 22.2799 4.10473 21.8396C3.75402 21.3986 3.57867 20.8688 3.57867 20.25C3.57867 19.6313 3.75402 19.1014 4.10473 18.6604C4.45484 18.2201 4.87593 18 5.368 18C5.86007 18 6.28116 18.2201 6.63127 18.6604C6.98198 19.1014 7.15734 19.6313 7.15734 20.25C7.15734 20.8688 6.98198 21.3986 6.63127 21.8396C6.28116 22.2799 5.86007 22.5 5.368 22.5ZM14.3147 22.5C13.8226 22.5 13.4015 22.2799 13.0514 21.8396C12.7007 21.3986 12.5253 20.8688 12.5253 20.25C12.5253 19.6313 12.7007 19.1014 13.0514 18.6604C13.4015 18.2201 13.8226 18 14.3147 18C14.8067 18 15.2281 18.2201 15.5788 18.6604C15.9289 19.1014 16.104 19.6313 16.104 20.25C16.104 20.8688 15.9289 21.3986 15.5788 21.8396C15.2281 22.2799 14.8067 22.5 14.3147 22.5ZM4.60753 4.5L6.75474 10.125H13.0174L15.4777 4.5H4.60753ZM5.368 16.875C4.697 16.875 4.19002 16.5045 3.84707 15.7635C3.50411 15.0233 3.4892 14.2875 3.80233 13.5563L5.01013 10.8L1.78933 2.25H0.8723C0.618811 2.25 0.410056 2.142 0.246033 1.926C0.0820111 1.71075 0 1.44375 0 1.125C0 0.80625 0.085888 0.538875 0.257664 0.322875C0.428844 0.107625 0.641178 0 0.894667 0H2.3485C2.51252 0 2.66909 0.0562501 2.8182 0.16875C2.96731 0.28125 3.07915 0.440625 3.1537 0.646875L3.7576 2.25H16.9539C17.3565 2.25 17.6324 2.4375 17.7815 2.8125C17.9306 3.1875 17.9232 3.58125 17.7591 3.99375L14.5831 11.1938C14.419 11.5688 14.2028 11.8594 13.9344 12.0656C13.666 12.2719 13.3604 12.375 13.0174 12.375H6.35214L5.368 14.625H15.2317C15.4852 14.625 15.6939 14.7326 15.858 14.9479C16.022 15.1639 16.104 15.4313 16.104 15.75C16.104 16.0688 16.0181 16.3358 15.8463 16.551C15.6752 16.767 15.4628 16.875 15.2093 16.875H5.368Z" fill="white"/>
</svg>
