<svg width="50" height="50" viewBox="0 0 30 30" fill="none" xmlns="http://www.w3.org/2000/svg">
<g clip-path="url(#clip0_519_2)">
<path d="M14.8837 3.77997C14.9205 3.75982 14.9618 3.74949 15.0037 3.74997C15.045 3.74981 15.0857 3.76013 15.1219 3.77997C15.1647 3.80568 15.1998 3.84264 15.2231 3.88685L28.08 25.7625C28.1475 25.875 28.1456 25.995 28.0837 26.1056C28.06 26.151 28.0251 26.1897 27.9825 26.2181C27.9454 26.2409 27.9023 26.252 27.8587 26.25H2.14874C2.10522 26.2521 2.06207 26.241 2.02499 26.2181C1.98234 26.1897 1.94752 26.151 1.92374 26.1056C1.89284 26.0536 1.87685 25.994 1.87751 25.9335C1.87817 25.873 1.89546 25.8138 1.92749 25.7625L14.7825 3.88685C14.8059 3.8427 14.8409 3.80576 14.8837 3.77997ZM16.8412 2.93622C16.6556 2.6129 16.388 2.34428 16.0654 2.15748C15.7427 1.97068 15.3765 1.87231 15.0037 1.87231C14.6309 1.87231 14.2647 1.97068 13.9421 2.15748C13.6195 2.34428 13.3518 2.6129 13.1662 2.93622L0.309365 24.8118C-0.54751 26.2706 0.47999 28.125 2.14687 28.125H27.8587C29.5256 28.125 30.555 26.2687 29.6962 24.8118L16.8412 2.93622Z" fill="#F24E1E"/>
<path d="M13.1287 22.4999C13.1287 22.2536 13.1772 22.0098 13.2714 21.7823C13.3657 21.5548 13.5038 21.3481 13.6779 21.174C13.852 20.9999 14.0587 20.8618 14.2862 20.7676C14.5137 20.6734 14.7575 20.6249 15.0037 20.6249C15.25 20.6249 15.4938 20.6734 15.7213 20.7676C15.9487 20.8618 16.1554 20.9999 16.3295 21.174C16.5037 21.3481 16.6418 21.5548 16.736 21.7823C16.8302 22.0098 16.8787 22.2536 16.8787 22.4999C16.8787 22.9971 16.6812 23.474 16.3295 23.8257C15.9779 24.1773 15.501 24.3749 15.0037 24.3749C14.5064 24.3749 14.0295 24.1773 13.6779 23.8257C13.3263 23.474 13.1287 22.9971 13.1287 22.4999ZM13.3125 11.2405C13.2875 11.0039 13.3125 10.7648 13.386 10.5385C13.4594 10.3123 13.5796 10.104 13.7387 9.9272C13.8978 9.7504 14.0923 9.60903 14.3096 9.51226C14.5269 9.41549 14.7621 9.36548 15 9.36548C15.2378 9.36548 15.473 9.41549 15.6903 9.51226C15.9076 9.60903 16.1021 9.7504 16.2613 9.9272C16.4204 10.104 16.5405 10.3123 16.614 10.5385C16.6874 10.7648 16.7124 11.0039 16.6875 11.2405L16.0312 17.8161C16.0092 18.0744 15.891 18.3151 15.7 18.4904C15.5091 18.6658 15.2592 18.7631 15 18.7631C14.7407 18.7631 14.4909 18.6658 14.2999 18.4904C14.109 18.3151 13.9908 18.0744 13.9687 17.8161L13.3125 11.2405Z" fill="#F24E1E"/>
</g>
<defs>
<clipPath id="clip0_519_2">
<rect width="50" height="50" fill="white"/>
</clipPath>
</defs>
</svg>
