<svg width="20" height="20" viewBox="0 0 20 20" fill="none" xmlns="http://www.w3.org/2000/svg">
<path d="M9.99992 3.33337C10.884 3.33337 11.7318 3.68456 12.3569 4.30968C12.9821 4.93481 13.3333 5.78265 13.3333 6.66671C13.3333 7.55076 12.9821 8.39861 12.3569 9.02373C11.7318 9.64885 10.884 10 9.99992 10C9.11586 10 8.26802 9.64885 7.6429 9.02373C7.01777 8.39861 6.66659 7.55076 6.66659 6.66671C6.66659 5.78265 7.01777 4.93481 7.6429 4.30968C8.26802 3.68456 9.11586 3.33337 9.99992 3.33337ZM9.99992 5.00004C9.55789 5.00004 9.13397 5.17564 8.82141 5.4882C8.50885 5.80076 8.33325 6.22468 8.33325 6.66671C8.33325 7.10874 8.50885 7.53266 8.82141 7.84522C9.13397 8.15778 9.55789 8.33337 9.99992 8.33337C10.4419 8.33337 10.8659 8.15778 11.1784 7.84522C11.491 7.53266 11.6666 7.10874 11.6666 6.66671C11.6666 6.22468 11.491 5.80076 11.1784 5.4882C10.8659 5.17564 10.4419 5.00004 9.99992 5.00004ZM9.99992 10.8334C12.2249 10.8334 16.6666 11.9417 16.6666 14.1667V16.6667H3.33325V14.1667C3.33325 11.9417 7.77492 10.8334 9.99992 10.8334ZM9.99992 12.4167C7.52492 12.4167 4.91659 13.6334 4.91659 14.1667V15.0834H15.0833V14.1667C15.0833 13.6334 12.4749 12.4167 9.99992 12.4167Z" fill="#9C9C9C"/>
</svg>
