<svg width="20" height="20" viewBox="0 0 20 20" fill="none" xmlns="http://www.w3.org/2000/svg">
<path d="M9.99992 14.1667C9.55789 14.1667 9.13397 13.9911 8.82141 13.6786C8.50885 13.366 8.33325 12.9421 8.33325 12.5C8.33325 11.575 9.07492 10.8334 9.99992 10.8334C10.4419 10.8334 10.8659 11.009 11.1784 11.3215C11.491 11.6341 11.6666 12.058 11.6666 12.5C11.6666 12.9421 11.491 13.366 11.1784 13.6786C10.8659 13.9911 10.4419 14.1667 9.99992 14.1667ZM14.9999 16.6667V8.33337H4.99992V16.6667H14.9999ZM14.9999 6.66671C15.4419 6.66671 15.8659 6.8423 16.1784 7.15486C16.491 7.46742 16.6666 7.89135 16.6666 8.33337V16.6667C16.6666 17.1087 16.491 17.5327 16.1784 17.8452C15.8659 18.1578 15.4419 18.3334 14.9999 18.3334H4.99992C4.55789 18.3334 4.13397 18.1578 3.82141 17.8452C3.50885 17.5327 3.33325 17.1087 3.33325 16.6667V8.33337C3.33325 7.40837 4.07492 6.66671 4.99992 6.66671H5.83325V5.00004C5.83325 3.89497 6.27224 2.83516 7.05364 2.05376C7.83504 1.27236 8.89485 0.833374 9.99992 0.833374C10.5471 0.833374 11.0889 0.941148 11.5944 1.15054C12.1 1.35994 12.5593 1.66685 12.9462 2.05376C13.3331 2.44067 13.64 2.9 13.8494 3.40553C14.0588 3.91105 14.1666 4.45287 14.1666 5.00004V6.66671H14.9999ZM9.99992 2.50004C9.33688 2.50004 8.70099 2.76343 8.23215 3.23227C7.76331 3.70111 7.49992 4.337 7.49992 5.00004V6.66671H12.4999V5.00004C12.4999 4.337 12.2365 3.70111 11.7677 3.23227C11.2988 2.76343 10.663 2.50004 9.99992 2.50004Z" fill="#9C9C9C"/>
</svg>
