<svg width="235" height="235" viewBox="0 0 235 235" fill="none" xmlns="http://www.w3.org/2000/svg">
<g clip-path="url(#clip0_296_61)">
<path d="M117.5 13.0557C96.8428 13.0557 76.6495 19.1812 59.4737 30.6577C42.2979 42.1342 28.911 58.4462 21.0058 77.5309C13.1007 96.6157 11.0323 117.616 15.0623 137.876C19.0923 158.136 29.0397 176.747 43.6465 191.353C58.2534 205.96 76.8636 215.908 97.1238 219.938C117.384 223.968 138.384 221.899 157.469 213.994C176.554 206.089 192.866 192.702 204.342 175.526C215.819 158.351 221.944 138.157 221.944 117.5C221.944 89.7997 210.94 63.2339 191.353 43.6467C171.766 24.0596 145.2 13.0557 117.5 13.0557ZM117.5 208.889C99.4249 208.889 81.7558 203.529 66.727 193.487C51.6981 183.445 39.9846 169.172 33.0676 152.473C26.1506 135.774 24.3408 117.399 27.867 99.671C31.3933 81.9433 40.0972 65.6594 52.8782 52.8784C65.6592 40.0974 81.9431 31.3935 99.6708 27.8672C117.399 24.341 135.774 26.1508 152.473 33.0678C169.172 39.9848 183.445 51.6983 193.487 66.7272C203.529 81.756 208.889 99.4251 208.889 117.5C208.889 141.738 199.26 164.983 182.122 182.122C164.983 199.261 141.738 208.889 117.5 208.889Z" fill="#2EDC5F"/>
<path d="M182.778 78.9861C181.555 77.7703 179.9 77.0879 178.176 77.0879C176.451 77.0879 174.797 77.7703 173.574 78.9861L101.115 151.118L61.9486 111.951C60.754 110.662 59.096 109.899 57.3392 109.832C55.5825 109.765 53.871 110.398 52.5812 111.592C51.2914 112.787 50.529 114.445 50.4617 116.202C50.3943 117.958 51.0276 119.67 52.2222 120.96L101.115 169.722L182.778 88.2556C183.39 87.6487 183.875 86.9267 184.207 86.1313C184.538 85.3358 184.709 84.4826 184.709 83.6208C184.709 82.7591 184.538 81.9059 184.207 81.1104C183.875 80.3149 183.39 79.593 182.778 78.9861Z" fill="#2EDC5F"/>
</g>
<defs>
<clipPath id="clip0_296_61">
<rect width="235" height="235" fill="white"/>
</clipPath>
</defs>
</svg>
