<svg width="26" height="27" viewBox="0 0 26 27" fill="none" xmlns="http://www.w3.org/2000/svg">
<path d="M10.563 4.09091H15.438C15.438 3.43992 15.1812 2.8156 14.7241 2.35528C14.2669 1.89497 13.647 1.63636 13.0005 1.63636C12.354 1.63636 11.734 1.89497 11.2769 2.35528C10.8198 2.8156 10.563 3.43992 10.563 4.09091ZM8.93799 4.09091C8.93799 3.00593 9.366 1.96539 10.1279 1.1982C10.8897 0.431005 11.923 0 13.0005 0C14.0779 0 15.1112 0.431005 15.8731 1.1982C16.635 1.96539 17.063 3.00593 17.063 4.09091H25.188C25.4035 4.09091 25.6101 4.17711 25.7625 4.33055C25.9149 4.48399 26.0005 4.6921 26.0005 4.90909C26.0005 5.12609 25.9149 5.33419 25.7625 5.48763C25.6101 5.64107 25.4035 5.72727 25.188 5.72727H23.4752L21.535 22.6538C21.3978 23.8503 20.8287 24.9543 19.9358 25.7557C19.0429 26.557 17.8886 26.9999 16.6925 27H9.30849C8.11241 26.9999 6.95811 26.557 6.06521 25.7557C5.17231 24.9543 4.60314 23.8503 4.46599 22.6538L2.52574 5.72727H0.812988C0.5975 5.72727 0.390837 5.64107 0.238464 5.48763C0.0860909 5.33419 0.000488281 5.12609 0.000488281 4.90909C0.000488281 4.6921 0.0860909 4.48399 0.238464 4.33055C0.390837 4.17711 0.5975 4.09091 0.812988 4.09091H8.93799ZM6.07961 22.4673C6.1713 23.2648 6.55094 24.0006 7.14629 24.5347C7.74165 25.0687 8.51118 25.3637 9.30849 25.3636H16.6925C17.4898 25.3637 18.2593 25.0687 18.8547 24.5347C19.45 24.0006 19.8297 23.2648 19.9214 22.4673L21.8389 5.72727H4.16211L6.07961 22.4673ZM10.563 9.81818C10.7785 9.81818 10.9851 9.90438 11.1375 10.0578C11.2899 10.2113 11.3755 10.4194 11.3755 10.6364V20.4545C11.3755 20.6715 11.2899 20.8796 11.1375 21.0331C10.9851 21.1865 10.7785 21.2727 10.563 21.2727C10.3475 21.2727 10.1408 21.1865 9.98846 21.0331C9.83609 20.8796 9.75049 20.6715 9.75049 20.4545V10.6364C9.75049 10.4194 9.83609 10.2113 9.98846 10.0578C10.1408 9.90438 10.3475 9.81818 10.563 9.81818ZM16.2505 10.6364C16.2505 10.4194 16.1649 10.2113 16.0125 10.0578C15.8601 9.90438 15.6535 9.81818 15.438 9.81818C15.2225 9.81818 15.0158 9.90438 14.8635 10.0578C14.7111 10.2113 14.6255 10.4194 14.6255 10.6364V20.4545C14.6255 20.6715 14.7111 20.8796 14.8635 21.0331C15.0158 21.1865 15.2225 21.2727 15.438 21.2727C15.6535 21.2727 15.8601 21.1865 16.0125 21.0331C16.1649 20.8796 16.2505 20.6715 16.2505 20.4545V10.6364Z" fill="black"/>
</svg>
